<?xml version="1.0" encoding="UTF-8"?>
<svg id="Layer_1" xmlns="http://www.w3.org/2000/svg" version="1.1" viewBox="0 0 863.94 286.22">
  <!-- Generator: Adobe Illustrator 29.7.1, SVG Export Plug-In . SVG Version: 2.1.1 Build 8)  -->
  <defs>
    <style>
      .st0 {
        fill: #2bac36;
      }

      .st1 {
        fill: #fff;
        font-family: Arial-BoldMT, Arial;
        font-size: 146.72px;
        font-weight: 700;
      }
    </style>
  </defs>
  <path class="st0" d="M630.33,219.95l67.29-96.67c2.24-3.22,6.87-3.62,9.63-.83l21.96,22.23,28.27-43.56h-21.83c-2.02,0-2.97-2.5-1.47-3.84l62.1-55.49c2.1-1.88,5.43-.39,5.43,2.43v77.43c0,2.79-3.19,4.37-5.41,2.68l-15.21-11.57-35.6,69.71c-2.17,4.26-7.8,5.3-11.35,2.09l-26.88-24.25-37.66,63.93c-1.19,2.01-3.35,3.25-5.68,3.25h-30.25c-3.38,0-5.51-3.64-3.87-6.59l.53-.95Z"/>
  <text class="st1" transform="translate(108.18 227.49)"><tspan x="0" y="0">SGFX</tspan></text>
</svg>