<?xml version="1.0" encoding="UTF-8"?>
<svg id="Layer_1" data-name="Layer 1" xmlns="http://www.w3.org/2000/svg" viewBox="0 0 183.23 79.14">
  <defs>
    <style>
      .cls-1 {
        fill: #0088f9;
      }

      .cls-2 {
        fill: #fff;
      }
    </style>
  </defs>
  <g>
    <path class="cls-2" d="M88.9,53.71h-19.62c-6.78-.43-13.49-2.94-15.62-9.97-1.05-3.46-1.02-8.79,0-12.26,2.06-6.98,8.54-9.96,15.37-10.39h20.29l-.21.34-5.29,5.75c-4.58.2-9.31-.2-13.87.02-4.88.24-9.68,2.07-10.71,7.36-.33,1.67-.34,4.46-.01,6.13,1.07,5.44,6.3,6.74,11.14,6.93,4.1.16,8.31-.13,12.43,0v-6.44h-11.38l5.4-6.11h12.09v18.66Z"/>
    <path class="cls-2" d="M48.74,21.09l-5.5,6.09c-4.7.15-9.43-.14-14.12.01-2.21.07-7.77.25-8.67,2.71-.68,1.85.81,2.43,2.27,2.86,4.04,1.19,9.4,1.35,13.67,1.98,6.16.91,12.84,2.2,12.35,9.99-.45,7.17-7.4,8.67-13.34,8.99H14.28s5.41-6.09,5.41-6.09c5.46-.23,11.13.32,16.55-.19,2.12-.2,7.09-.79,6.38-3.96-.26-1.14-2.99-1.82-3.98-2.04-4.18-.94-8.75-1.18-13.01-1.79-5.54-.81-11.69-2.08-11.43-9.07.29-7.74,7.48-9.18,13.84-9.49h20.71Z"/>
    <path class="cls-2" d="M124.87,21.09v6.11h-25.68v13.89c1.8-1.87,3.42-3.91,5.23-5.77.1-.1.11-.25.12-.25h11.88v6.11h-17.23v12.55h-6.11V21.09h31.79Z"/>
    <path class="cls-2" d="M166.36,53.71h-9.33l-10.04-11.12-9.79,10.87c-.09.04-.11.25-.12.25h-9.37l14.62-16.36-14.62-16.27h9.33l29.32,32.63Z"/>
    <polygon class="cls-1" points="169.21 13.64 169.21 28.78 163.98 23.68 157.79 30.62 148.54 30.62 159.08 18.85 154.06 13.64 169.21 13.64"/>
  </g>
  <g>
    <path class="cls-2" d="M14.02,60.28h5.26v1.02h-2.11v4.2h-1.09v-4.2h-2.06v-1.02Z"/>
    <path class="cls-2" d="M24.84,64.06l1.59,1.45h-1.6l-1.37-1.32h-2.43v1.32h-1.09v-5.22h3.74c.94,0,2.49.15,2.49,1.95,0,1.15-.63,1.62-1.33,1.82ZM21.03,63.17h3.06c.74,0,.92-.53.92-.94s-.18-.93-.92-.93h-3.06v1.86Z"/>
    <path class="cls-2" d="M30.67,60.28l2.62,5.22h-1.26l-.57-1.13h-3.28l-.57,1.13h-1.26l2.63-5.22h1.68ZM30.99,63.43l-1.16-2.31-1.16,2.31h2.32Z"/>
    <path class="cls-2" d="M40.31,62.89c0,2.41-1.82,2.61-2.76,2.61h-3.9v-5.22h3.9c.94,0,2.76.21,2.76,2.61ZM39.14,62.89c0-.96-.47-1.59-1.42-1.59h-2.97v3.18h2.97c.95,0,1.42-.64,1.42-1.59Z"/>
    <path class="cls-2" d="M46.65,60.28v1h-4.59v1.16h4.59v.93h-4.59v1.13h4.59v1h-5.68v-5.22h5.68Z"/>
    <path class="cls-2" d="M56.15,63.98c0,.59-.23,1.53-2.46,1.53h-.94c-2.24,0-2.46-1.23-2.46-1.82h1.09c0,.15.1.8,1.09.8h1.85c.56,0,.75-.19.75-.44,0-1.17-4.79-.04-4.79-2.23,0-.6.23-1.54,2.47-1.54h.93c2.24,0,2.47,1.23,2.47,1.83h-1.1c0-.16-.1-.8-1.08-.8h-1.86c-.56,0-.74.18-.74.44,0,1.15,4.78-.01,4.78,2.23Z"/>
    <path class="cls-2" d="M63.06,60.28h1.81v5.22h-1.09v-4.23l-2.38,4.23h-1.19l-2.38-4.23v4.23h-1.1v-5.22h1.81l2.25,4,2.26-4Z"/>
    <path class="cls-2" d="M69.54,60.28l2.62,5.22h-1.26l-.57-1.13h-3.28l-.57,1.13h-1.26l2.63-5.22h1.68ZM69.87,63.43l-1.16-2.31-1.16,2.31h2.32Z"/>
    <path class="cls-2" d="M77.36,64.06l1.59,1.45h-1.6l-1.37-1.32h-2.43v1.32h-1.09v-5.22h3.74c.94,0,2.49.15,2.49,1.95,0,1.15-.63,1.62-1.33,1.82ZM73.55,63.17h3.06c.74,0,.92-.53.92-.94s-.18-.93-.92-.93h-3.06v1.86Z"/>
    <path class="cls-2" d="M79.17,60.28h5.26v1.02h-2.11v4.2h-1.09v-4.2h-2.06v-1.02Z"/>
    <path class="cls-2" d="M90.77,60.28v1h-4.59v1.16h4.59v.93h-4.59v1.13h4.59v1h-5.68v-5.22h5.68Z"/>
    <path class="cls-2" d="M96.47,64.06l1.59,1.45h-1.6l-1.37-1.32h-2.43v1.32h-1.09v-5.22h3.74c.94,0,2.49.15,2.49,1.95,0,1.15-.63,1.62-1.33,1.82ZM92.66,63.17h3.06c.74,0,.92-.53.92-.94s-.18-.93-.92-.93h-3.06v1.86Z"/>
    <path class="cls-2" d="M100.25,64.81c0,.39-.31.69-.69.69s-.69-.31-.69-.69.31-.69.69-.69.69.31.69.69Z"/>
    <path class="cls-2" d="M103.87,60.28h5.26v1.02h-2.11v4.2h-1.09v-4.2h-2.06v-1.02Z"/>
    <path class="cls-2" d="M114.68,64.06l1.59,1.45h-1.6l-1.37-1.32h-2.43v1.32h-1.09v-5.22h3.74c.94,0,2.49.15,2.49,1.95,0,1.15-.63,1.62-1.33,1.82ZM110.87,63.17h3.06c.74,0,.92-.53.92-.94s-.18-.93-.92-.93h-3.06v1.86Z"/>
    <path class="cls-2" d="M120.52,60.28l2.62,5.22h-1.26l-.57-1.13h-3.28l-.57,1.13h-1.26l2.63-5.22h1.68ZM120.84,63.43l-1.16-2.31-1.16,2.31h2.32Z"/>
    <path class="cls-2" d="M130.16,62.89c0,2.41-1.82,2.61-2.76,2.61h-3.9v-5.22h3.9c.94,0,2.76.21,2.76,2.61ZM128.99,62.89c0-.96-.47-1.59-1.42-1.59h-2.97v3.18h2.97c.95,0,1.42-.64,1.42-1.59Z"/>
    <path class="cls-2" d="M136.5,60.28v1h-4.59v1.16h4.59v.93h-4.59v1.13h4.59v1h-5.68v-5.22h5.68Z"/>
    <path class="cls-2" d="M145.99,63.98c0,.59-.23,1.53-2.46,1.53h-.94c-2.24,0-2.46-1.23-2.46-1.82h1.09c0,.15.1.8,1.09.8h1.85c.56,0,.75-.19.75-.44,0-1.17-4.79-.04-4.79-2.23,0-.6.23-1.54,2.47-1.54h.93c2.24,0,2.47,1.23,2.47,1.83h-1.1c0-.16-.1-.8-1.08-.8h-1.86c-.56,0-.74.18-.74.44,0,1.15,4.78-.01,4.78,2.23Z"/>
    <path class="cls-2" d="M153.11,62.62v2.88h-.7l-.15-.49c-.59.43-1.35.49-1.86.49h-1.13c-.94,0-2.76-.2-2.76-2.61s1.81-2.61,2.76-2.61h1.13c.86,0,2.43.18,2.71,2h-1.18c-.1-.48-.4-.97-1.39-.97h-1.56c-.96,0-1.3.67-1.3,1.59s.34,1.59,1.3,1.59h1.56c1.05,0,1.49-.42,1.54-1.05h-2.94v-.82h3.98Z"/>
    <path class="cls-2" d="M159.59,60.28v1h-4.58v1.16h4.58v1.07h-4.58v1.98h-1.1v-5.22h5.68Z"/>
    <path class="cls-2" d="M166.79,60.28l-2.58,2.61,2.58,2.61h-1.52l-1.86-1.98-1.86,1.98h-1.52l2.58-2.61-2.58-2.61h1.52l1.86,1.98,1.86-1.98h1.52Z"/>
  </g>
</svg>